<svg width="15" height="16" viewBox="0 0 15 16" fill="none" xmlns="http://www.w3.org/2000/svg">
<g clip-path="url(#clip0_5_19)">
<path d="M4.39289 11.4101C4.37605 11.4292 4.36333 11.4424 4.35193 11.4567C4.08568 11.7902 3.80623 12.1123 3.51182 12.4212C3.10127 12.852 2.66688 13.2573 2.20693 13.6351C2.02491 13.7846 1.81613 13.8519 1.58236 13.8279C1.15128 13.7838 0.874513 13.4381 0.839596 13.0962C0.817479 12.8797 0.867193 12.684 0.99278 12.507C1.0347 12.4479 1.08521 12.3966 1.14104 12.3508C1.3843 12.1512 1.61999 11.943 1.84781 11.726C2.17429 11.4152 2.4845 11.0887 2.77554 10.7443C2.89425 10.6039 3.00852 10.4597 3.12451 10.3169C3.13947 10.2985 3.15254 10.2785 3.16918 10.2556C3.1521 10.2332 3.13695 10.2119 3.12035 10.1917C2.8095 9.81357 2.54005 9.40799 2.31116 8.97536C2.04322 8.46903 1.83901 7.93789 1.69518 7.38371C1.63003 7.13256 1.66723 6.89397 1.82093 6.68382C2.02719 6.40183 2.31168 6.28464 2.65416 6.34796C2.98688 6.40951 3.20606 6.61494 3.30217 6.94037C3.36256 7.1448 3.42007 7.34987 3.49547 7.54946C3.65253 7.96517 3.85487 8.35735 4.10504 8.72474C4.11404 8.73793 4.12336 8.75093 4.13316 8.76353C4.13628 8.76757 4.1414 8.77009 4.14644 8.77393C4.17451 8.76369 4.18063 8.73533 4.19307 8.71321C4.36421 8.40879 4.52263 8.09788 4.66882 7.78065C5.0133 7.03305 5.28115 6.25872 5.47701 5.45951C5.56584 5.09713 5.64027 4.73167 5.69367 4.36224C5.71654 4.20405 5.73686 4.04549 5.75782 3.88702C5.75982 3.87194 5.7581 3.85638 5.7581 3.83846C5.74498 3.83622 5.7349 3.83326 5.72474 3.83298C5.69811 3.83218 5.67143 3.83246 5.64475 3.83246C4.05305 3.83246 2.46134 3.83234 0.869633 3.83274C0.789282 3.83274 0.709531 3.82938 0.631899 3.8077C0.308575 3.71739 0.0989574 3.5104 0.0223658 3.18381C-0.0903819 2.70315 0.234303 2.24077 0.71985 2.17277C0.772364 2.16541 0.826238 2.16581 0.879472 2.16581C1.93796 2.16545 2.99644 2.16557 4.05489 2.16533C4.0888 2.16533 4.1236 2.17017 4.15795 2.15825C4.17115 2.1281 4.16647 2.0985 4.16655 2.06986C4.16699 1.82987 4.16751 1.58992 4.16655 1.34993C4.16603 1.22553 4.18739 1.1061 4.23803 0.992185C4.38517 0.661239 4.71413 0.498886 4.98322 0.500006C5.19536 0.500886 5.38258 0.560683 5.54248 0.698917C5.72998 0.86103 5.82881 1.06818 5.83261 1.31609C5.83645 1.56668 5.83341 1.81735 5.83361 2.06798C5.83361 2.09674 5.83505 2.1255 5.83589 2.15729C5.85637 2.16053 5.87153 2.16437 5.88681 2.16505C5.9134 2.16625 5.94012 2.16553 5.9668 2.16553C7.01992 2.16553 8.07309 2.16565 9.12621 2.16537C9.21452 2.16537 9.30175 2.17097 9.3875 2.19437C9.74674 2.29233 9.97468 2.61276 9.99748 2.93546C10.0269 3.35156 9.75318 3.70555 9.38662 3.80298C9.30875 3.8237 9.22996 3.83278 9.14949 3.8327C8.61627 3.83222 8.083 3.83246 7.54978 3.83246H7.44999C7.44439 3.85682 7.438 3.87662 7.43544 3.8969C7.4066 4.12421 7.38228 4.35216 7.34905 4.57879C7.30109 4.90566 7.23882 5.23008 7.16767 5.55283C7.06028 6.03981 6.92797 6.51991 6.77083 6.99297C6.57237 7.59042 6.33608 8.17268 6.06155 8.73945C5.85457 9.16676 5.62703 9.58266 5.38006 9.98808C5.37178 10.0017 5.36438 10.0158 5.35598 10.0308C5.36838 10.0602 5.39594 10.0732 5.41874 10.0901C5.67159 10.2782 5.9384 10.4439 6.21717 10.5911C6.43342 10.7052 6.57697 10.8809 6.63888 11.1182C6.76659 11.608 6.44522 12.0737 5.97619 12.153C5.7849 12.1853 5.60516 12.1541 5.43437 12.0648C5.09365 11.8865 4.76865 11.683 4.45832 11.456C4.43912 11.4419 4.41945 11.4286 4.39305 11.4101H4.39289Z" fill="white"/>
<path d="M12.7549 12.1731C12.6783 12.1628 9.81726 12.163 9.74563 12.1731C9.73899 12.1958 9.73027 12.2205 9.72467 12.2458C9.60041 12.8048 9.47658 13.3639 9.35243 13.923C9.28428 14.2298 9.21989 14.5375 9.14626 14.843C9.06022 15.1999 8.83133 15.4193 8.47145 15.4853C8.2012 15.5349 7.95942 15.4577 7.75753 15.2676C7.61202 15.1305 7.52999 14.9606 7.50479 14.7634C7.49256 14.6675 7.49899 14.5718 7.51999 14.4773C7.6431 13.9235 7.76625 13.3697 7.88943 12.8158C8.0149 12.2516 8.1404 11.6873 8.26587 11.1231C8.4081 10.4835 8.55044 9.8439 8.69258 9.20429C8.82777 8.59584 8.96284 7.9873 9.09786 7.37881C9.12614 7.25137 9.15309 7.12366 9.18229 6.99646C9.23965 6.74643 9.37815 6.5558 9.60356 6.43141C9.72227 6.36589 9.85078 6.33169 9.98636 6.33157C10.8288 6.33081 11.6712 6.33013 12.5136 6.33169C12.8795 6.33237 13.2083 6.58784 13.3024 6.94347C13.3398 7.08498 13.3679 7.22897 13.3997 7.37197C13.5304 7.95958 13.6608 8.54724 13.7914 9.13485C13.9225 9.72507 14.0535 10.3153 14.1847 10.9055C14.3095 11.4672 14.4344 12.0288 14.5592 12.5904C14.6903 13.1806 14.8214 13.7709 14.9525 14.3611C14.9727 14.452 14.9964 14.5423 14.9995 14.6363C15.0132 15.0478 14.7224 15.4344 14.2735 15.4913C13.8022 15.5511 13.4366 15.2306 13.3528 14.8508C13.2582 14.4216 13.1618 13.9928 13.0665 13.5637C12.969 13.1243 12.8718 12.6847 12.7743 12.2452C12.7691 12.222 12.762 12.1992 12.7549 12.173V12.1731ZM10.1223 10.4937C10.1835 10.5015 12.2406 10.5072 12.3445 10.5004C12.3545 10.4998 12.3641 10.4956 12.3721 10.4935C12.3837 10.4658 12.3728 10.4432 12.3677 10.4202C12.1947 9.64015 12.0217 8.86014 11.8484 8.08018C11.8427 8.05486 11.8409 8.02758 11.8213 8.00558C11.8076 8.00438 11.7945 8.00218 11.7814 8.00218C11.4269 8.00198 11.0724 8.00194 10.7179 8.0023C10.7025 8.0023 10.6871 8.00638 10.6667 8.00926C10.485 8.82671 10.3036 9.64267 10.1225 10.4586C10.1203 10.4685 10.1223 10.4792 10.1223 10.4937H10.1223Z" fill="white"/>
</g>
<defs>
<clipPath id="clip0_5_19">
<rect width="15" height="15" fill="white" transform="translate(0 0.5)"/>
</clipPath>
</defs>
</svg>
